<svg width="67" height="44" viewBox="0 0 67 44" fill="none" xmlns="http://www.w3.org/2000/svg">
<path d="M9.19902 0.0170212L9.1936 0.516991C9.19393 0.516991 9.19426 0.517002 9.1946 0.517002C14.1972 0.571262 16.7918 0.614983 18.5316 0.829807C20.2276 1.03922 21.0905 1.4078 22.6395 2.15559L22.6399 2.15577C25.4908 3.52923 27.4721 5.72277 28.444 8.57602C28.5706 8.95182 28.6761 9.56805 28.7483 10.3385C28.8196 11.0997 28.8557 11.9787 28.8557 12.8605C28.8557 13.7423 28.8196 14.6199 28.7483 15.3782C28.6761 16.1462 28.5707 16.7575 28.4446 17.1269C27.7559 19.1089 27.0177 20.2791 25.5107 21.8072C24.177 23.1407 22.9601 23.925 21.1634 24.6145C20.9894 24.6806 20.823 24.7579 20.6852 24.8559C20.5473 24.954 20.3983 25.1016 20.3328 25.3186C20.2645 25.5449 20.314 25.7547 20.3922 25.9168C20.4668 26.0714 20.5801 26.2111 20.6978 26.3351L20.7012 26.3386C21.0192 26.6669 21.9677 27.7901 22.8439 28.8568C23.1768 29.2621 23.4956 29.6546 23.7599 29.9854C23.696 29.9758 23.6306 29.966 23.564 29.9559C23.1403 29.884 22.3098 29.8412 21.2969 29.8225C20.2658 29.8034 19.0084 29.8089 17.7145 29.8415L17.7126 29.8415L13.4895 29.9639L12.0882 28.1149C12.0879 28.1146 12.0876 28.1142 12.0874 28.1139C11.6595 27.5435 11.2412 27.0259 10.9132 26.6479C10.75 26.4597 10.6042 26.3005 10.4882 26.1853C10.4314 26.1288 10.3732 26.0743 10.3186 26.0308C10.2921 26.0096 10.2556 25.9823 10.2131 25.9577L10.2113 25.9567C10.1862 25.9422 10.0795 25.8803 9.93494 25.8803C9.735 25.8803 9.60511 25.9898 9.54824 26.0511C9.49061 26.1133 9.45792 26.1773 9.44118 26.2138C9.40619 26.2899 9.38486 26.3716 9.37072 26.4354C9.34063 26.571 9.31738 26.7474 9.29913 26.9425C9.2621 27.3385 9.24014 27.8743 9.24014 28.4582C9.24014 28.9698 9.2401 29.3448 9.23287 29.6228C9.23059 29.7103 9.22763 29.7841 9.22418 29.8461C8.21246 29.4889 6.96985 28.5896 5.62332 27.1627L5.62278 27.1621L4.086 25.5388L3.3685 24.7808L3.22748 25.8149L3.09761 26.7673L3.09686 26.7729L3.09689 26.7729C3.03021 27.3063 2.72607 30.8282 2.42367 34.565C2.11992 38.3184 1.81814 41.7857 1.75525 42.2679L1.75435 42.2748L1.7544 42.2748L1.6976 42.7632H1.06059H0.5V21.77C0.5 15.8509 0.516232 10.4573 0.545981 6.53318C0.560857 4.57084 0.579103 2.97751 0.600353 1.87014C0.610989 1.3159 0.622323 0.886406 0.634231 0.594181C0.634712 0.582371 0.635193 0.57082 0.635673 0.559528L0 42.7632V21.77C0 9.93032 0.0649343 0.190178 0.173158 0.1036C0.259737 0.0170212 4.30731 -0.026268 9.19902 0.0170212ZM9.19902 0.0170212C19.1773 0.125244 19.7184 0.190178 22.8569 1.70531L9.19902 0.0170212ZM19.7196 13.1254C19.7632 13.812 19.7716 14.3176 19.7108 14.7768C19.6486 15.2467 19.5171 15.6446 19.3122 16.1229L19.3122 16.1229L19.3098 16.1283C18.6751 17.5621 17.6277 18.592 16.2204 19.1407L16.2176 19.1417C15.9133 19.2583 15.4155 19.3676 14.8675 19.4639C14.3066 19.5624 13.653 19.6537 13.0135 19.7263C12.3743 19.7988 11.7425 19.8534 11.2254 19.8774C10.9673 19.8894 10.7319 19.894 10.5355 19.8887C10.3547 19.8838 10.1585 19.8699 10.0077 19.8247L10.0005 19.8225L9.99328 19.8201C9.91964 19.7956 9.81093 19.7531 9.70501 19.6664C9.59514 19.5764 9.51885 19.4644 9.46507 19.3421C9.36983 19.1256 9.32795 18.8316 9.30095 18.4564C9.24519 17.6813 9.24014 16.2613 9.24014 13.6316C9.24014 12.0921 9.25639 10.6746 9.28634 9.62921C9.30129 9.10746 9.31978 8.67315 9.34183 8.36102C9.35275 8.20639 9.36515 8.07263 9.37984 7.97009C9.38696 7.92036 9.39641 7.86491 9.41002 7.81326C9.41665 7.78807 9.42764 7.75064 9.44549 7.71L9.44555 7.70986C9.45524 7.68779 9.48842 7.61222 9.56176 7.54008C9.67656 7.42555 9.81771 7.38393 9.87127 7.36872C9.95247 7.34564 10.0412 7.3308 10.1263 7.32032C10.2987 7.2991 10.5149 7.28896 10.7529 7.28617C11.2325 7.28054 11.8502 7.30439 12.4907 7.34818C13.7521 7.43443 15.1915 7.60414 15.8593 7.80688L15.8611 7.80743C17.0677 8.17867 18.0076 8.79056 18.6605 9.6978C19.3091 10.5991 19.6403 11.7447 19.7196 13.1254ZM19.7196 13.1254C19.7196 13.1248 19.7196 13.1243 19.7195 13.1237L19.2205 13.1554M19.7196 13.1254C19.7197 13.1259 19.7197 13.1263 19.7197 13.1267L19.2205 13.1554M19.2205 13.1554C19.3071 14.519 19.2422 15.0168 18.8526 15.9259L15.7141 8.28532C17.9651 8.97795 19.069 10.5147 19.2205 13.1554ZM9.51146 29.9306C9.51146 29.9306 9.51024 29.9304 9.50794 29.9302C9.51033 29.9305 9.51147 29.9306 9.51146 29.9306Z" fill="#72F2EB" stroke="black"/>
<path d="M38.2367 37.97C37.4145 37.9579 36.3814 37.6909 35.3515 37.2828C34.3136 36.8716 33.2381 36.3008 32.3253 35.6472L32.3242 35.6464C32.1139 35.4949 31.9206 35.3664 31.7651 35.271C31.7064 35.3666 31.6379 35.479 31.5612 35.6054C31.3078 36.0233 30.9676 36.5903 30.5999 37.2067L30.5999 37.2067L30.5981 37.2097C29.9343 38.305 29.6406 38.8131 29.535 39.1096C29.5118 39.1747 29.5038 39.2141 29.5012 39.2358C29.4989 39.2547 29.5006 39.2605 29.5006 39.2607C29.5026 39.2704 29.5102 39.2983 29.5937 39.4263L29.5937 39.4263L29.5947 39.4278C29.9908 40.0401 31.0279 40.8126 32.4304 41.4505C33.0612 41.7259 34.0141 41.9667 35.4731 42.1809C36.9283 42.3945 38.8557 42.5775 41.4162 42.7503L41.4189 42.7505C42.9132 42.8596 43.6838 42.9048 44.2191 42.877C44.7178 42.8511 45.0032 42.763 45.5361 42.5645C48.6556 41.3893 50.4062 38.7538 50.4062 35.1108C50.4062 33.5832 49.8285 31.814 49.0419 30.8102C47.9645 29.4545 45.568 28.0436 42.5069 27.0588C40.8896 26.5413 39.8044 26.1235 39.1231 25.6782C38.7742 25.4503 38.5026 25.1974 38.3217 24.8935C38.137 24.5833 38.0687 24.2568 38.0687 23.9204C38.0687 23.2775 38.2687 22.7257 38.8052 22.3521C39.2897 22.0147 39.9826 21.8748 40.8306 21.8198L40.831 21.8197C42.6 21.7063 44.6277 22.0671 46.3022 22.8133C46.624 22.9527 46.9223 23.0806 47.1454 23.1736C47.2127 23.0511 47.2945 22.8993 47.3884 22.7225C47.6597 22.2123 48.0258 21.507 48.4253 20.7296C48.4567 20.6664 48.4874 20.6046 48.5174 20.5442C48.8678 19.8389 49.126 19.3194 49.2998 18.9196C49.4972 18.4657 49.5444 18.2534 49.5407 18.1509C49.5401 18.1325 49.5377 18.1245 49.5373 18.1232L49.5372 18.1228C49.5371 18.1225 49.537 18.1223 49.5364 18.1215C49.5339 18.1177 49.5152 18.0921 49.4434 18.0479C49.2897 17.9532 49.0523 17.8631 48.649 17.7102C48.6215 17.6997 48.5933 17.689 48.5642 17.678L48.5642 17.678L48.5594 17.6761C47.0765 17.0954 44.9783 16.7064 42.8423 16.5622C40.7061 16.418 38.587 16.5224 37.0643 16.8953L37.0627 16.8957C34.8992 17.4183 33.2391 18.3703 32.1197 19.6359C31.0043 20.8971 30.3993 22.4987 30.3891 24.3777L30.3891 24.3795C30.3786 25.5397 30.4908 26.3371 30.7846 27.0249C31.0779 27.7118 31.5729 28.3373 32.4148 29.1161L32.4148 29.1161L32.4187 29.1198C33.9341 30.5521 35.2973 31.3457 38.3175 32.5238L38.3175 32.5237L38.323 32.526C38.8964 32.7575 39.4757 33.0167 39.9498 33.2497C40.4009 33.4712 40.8166 33.6972 41.0128 33.8633L41.0196 33.869L41.0262 33.875C41.3781 34.1949 41.5687 34.6754 41.6412 35.1422C41.7151 35.618 41.6781 36.1471 41.5065 36.6226L41.5067 36.6226L41.5016 36.6356C41.302 37.1436 40.7762 37.4708 40.2422 37.6663C39.6798 37.8722 38.9789 37.9815 38.2367 37.97ZM38.2367 37.97L38.244 37.47L38.2362 37.97C38.2364 37.97 38.2365 37.97 38.2367 37.97ZM29.1749 39.6994C29.6511 40.4354 30.7982 41.2579 32.2268 41.9072C33.612 42.5133 36.2527 42.9029 41.3825 43.2492L29.1749 39.6994Z" fill="#FF5F5D" stroke="black"/>
<path d="M66.2434 36.8419L66.2433 36.8419V36.8362C66.2433 35.9257 66.1295 35.2517 65.8751 34.6574C65.6206 34.0628 65.2092 33.51 64.5554 32.8662C63.2323 31.6038 60.84 31.1313 58.9241 31.8095C56.4004 32.7096 54.8751 35.907 55.7463 38.5622C56.992 42.2968 61.9322 43.451 64.7231 40.6601C65.3466 40.0366 65.7183 39.524 65.9407 38.9668C66.1638 38.408 66.2538 37.7616 66.2434 36.8419Z" fill="#FF5F5D" stroke="black"/>
</svg>
