<svg width="721" height="586" viewBox="0 0 721 586" fill="none" xmlns="http://www.w3.org/2000/svg">
<path d="M8.72841 330.791C3.74134 330.053 0.0832374 325.719 0.19419 320.679L5.25514 90.7799C5.3748 85.3442 9.81563 81 15.2527 81H229.125C232.232 81 235.163 82.444 237.055 84.9077L344.069 224.201C345.077 225.514 345.744 227.057 346.01 228.691L368.434 366.852C369.305 372.215 365.732 377.293 360.39 378.285L325.278 384.809C324.593 384.936 323.923 385.134 323.279 385.401L19.2963 511.275C12.7121 514.001 5.47043 509.162 5.47043 502.036V413.866C5.47043 409.25 8.62948 405.234 13.1153 404.147L149.508 371.096C160.187 368.508 159.486 353.092 148.617 351.484L8.72841 330.791Z" fill="#6FDBD5"/>
<path d="M254.185 83.4311C246.459 74.0459 259.011 61.6027 268.328 69.4108L498.268 262.102C502.717 265.829 509.393 265 512.794 260.298L635.506 90.6394C637.386 88.0396 640.4 86.5 643.609 86.5H710.5C716.023 86.5 720.5 90.9772 720.5 96.5V342.158C720.5 345.767 718.555 349.097 715.411 350.869L459.256 495.292C458.423 495.762 457.527 496.109 456.595 496.324L71.6106 585.243C70.8726 585.414 70.1176 585.5 69.3602 585.5H10C4.47715 585.5 0 581.023 0 575.5V540.317C0 535.96 2.82117 532.104 6.97403 530.786L380.982 412.046C385.616 410.574 388.521 405.982 387.864 401.164L362.883 217.814C362.633 215.974 361.875 214.241 360.695 212.808L254.185 83.4311Z" fill="#FF5F5D"/>
</svg>
